<mxfile host="app.diagrams.net" modified="2023-08-31T21:30:28.002Z" agent="Mozilla/5.0 (Windows NT 10.0; Win64; x64; rv:109.0) Gecko/20100101 Firefox/117.0" etag="kMm5hRab14Twpzpqu_IJ" version="21.7.1" type="device">
  <diagram name="Page-1" id="7e0a89b8-554c-2b80-1dc8-d5c74ca68de4">
    <mxGraphModel dx="1221" dy="704" grid="1" gridSize="10" guides="1" tooltips="1" connect="1" arrows="1" fold="1" page="1" pageScale="1" pageWidth="1100" pageHeight="850" background="none" math="0" shadow="0">
      <root>
        <mxCell id="0" />
        <mxCell id="1" parent="0" />
        <mxCell id="mJmgIE37o_1EEMdudaHA-1" value="" style="verticalLabelPosition=bottom;shadow=0;dashed=0;align=center;html=1;verticalAlign=top;shape=mxgraph.electrical.logic_gates.lowpass_filter;" parent="1" vertex="1">
          <mxGeometry x="60" y="482" width="44" height="49" as="geometry" />
        </mxCell>
        <mxCell id="mJmgIE37o_1EEMdudaHA-68" value="" style="edgeStyle=orthogonalEdgeStyle;rounded=0;orthogonalLoop=1;jettySize=auto;html=1;" parent="1" source="mJmgIE37o_1EEMdudaHA-2" target="mJmgIE37o_1EEMdudaHA-65" edge="1">
          <mxGeometry relative="1" as="geometry" />
        </mxCell>
        <mxCell id="mJmgIE37o_1EEMdudaHA-2" value="PMSM" style="verticalLabelPosition=middle;shadow=0;dashed=0;align=center;html=1;verticalAlign=middle;strokeWidth=1;shape=ellipse;aspect=fixed;fontSize=35;fillColor=#e1d5e7;strokeColor=#9673a6;" parent="1" vertex="1">
          <mxGeometry x="950" y="472.5" width="125" height="125" as="geometry" />
        </mxCell>
        <mxCell id="mJmgIE37o_1EEMdudaHA-8" value="" style="verticalLabelPosition=bottom;shadow=0;dashed=0;align=center;html=1;verticalAlign=top;shape=mxgraph.electrical.transistors.nigbt;" parent="1" vertex="1">
          <mxGeometry x="653" y="495" width="40" height="40" as="geometry" />
        </mxCell>
        <mxCell id="mJmgIE37o_1EEMdudaHA-9" value="" style="verticalLabelPosition=bottom;shadow=0;dashed=0;align=center;html=1;verticalAlign=top;shape=mxgraph.electrical.transistors.nigbt;" parent="1" vertex="1">
          <mxGeometry x="653" y="535" width="40" height="40" as="geometry" />
        </mxCell>
        <mxCell id="mJmgIE37o_1EEMdudaHA-10" value="" style="verticalLabelPosition=bottom;shadow=0;dashed=0;align=center;html=1;verticalAlign=top;shape=mxgraph.electrical.transistors.nigbt;" parent="1" vertex="1">
          <mxGeometry x="693" y="495" width="40" height="40" as="geometry" />
        </mxCell>
        <mxCell id="mJmgIE37o_1EEMdudaHA-11" value="" style="verticalLabelPosition=bottom;shadow=0;dashed=0;align=center;html=1;verticalAlign=top;shape=mxgraph.electrical.transistors.nigbt;" parent="1" vertex="1">
          <mxGeometry x="693" y="535" width="40" height="40" as="geometry" />
        </mxCell>
        <mxCell id="mJmgIE37o_1EEMdudaHA-12" value="" style="verticalLabelPosition=bottom;shadow=0;dashed=0;align=center;html=1;verticalAlign=top;shape=mxgraph.electrical.transistors.nigbt;" parent="1" vertex="1">
          <mxGeometry x="733" y="495" width="40" height="40" as="geometry" />
        </mxCell>
        <mxCell id="mJmgIE37o_1EEMdudaHA-13" value="" style="verticalLabelPosition=bottom;shadow=0;dashed=0;align=center;html=1;verticalAlign=top;shape=mxgraph.electrical.transistors.nigbt;" parent="1" vertex="1">
          <mxGeometry x="733" y="535" width="40" height="40" as="geometry" />
        </mxCell>
        <mxCell id="mJmgIE37o_1EEMdudaHA-28" value="3 Phase Inverter" style="text;html=1;align=center;verticalAlign=middle;resizable=0;points=[];autosize=1;strokeColor=none;fillColor=none;" parent="1" vertex="1">
          <mxGeometry x="655.5" y="575" width="110" height="30" as="geometry" />
        </mxCell>
        <mxCell id="mJmgIE37o_1EEMdudaHA-31" value="Current Controller" style="text;html=1;align=center;verticalAlign=middle;resizable=0;points=[];autosize=1;strokeColor=none;fillColor=none;" parent="1" vertex="1">
          <mxGeometry x="260" y="770" width="110" height="30" as="geometry" />
        </mxCell>
        <mxCell id="mJmgIE37o_1EEMdudaHA-32" value="" style="shape=flexArrow;endArrow=classic;startArrow=classic;html=1;rounded=0;fillColor=#d5e8d4;strokeColor=#82b366;gradientColor=none;shadow=1;" parent="1" edge="1">
          <mxGeometry width="100" height="100" relative="1" as="geometry">
            <mxPoint x="940" y="480" as="sourcePoint" />
            <mxPoint x="773" y="410" as="targetPoint" />
            <Array as="points">
              <mxPoint x="773" y="480" />
            </Array>
          </mxGeometry>
        </mxCell>
        <mxCell id="mJmgIE37o_1EEMdudaHA-33" value="&lt;font color=&quot;#006600&quot; style=&quot;font-size: 19px;&quot;&gt;Energy flow&lt;br&gt;&lt;/font&gt;" style="edgeLabel;html=1;align=center;verticalAlign=middle;resizable=0;points=[];" parent="mJmgIE37o_1EEMdudaHA-32" vertex="1" connectable="0">
          <mxGeometry x="0.181" y="-3" relative="1" as="geometry">
            <mxPoint x="50" y="-27" as="offset" />
          </mxGeometry>
        </mxCell>
        <mxCell id="mJmgIE37o_1EEMdudaHA-38" value="" style="whiteSpace=wrap;html=1;aspect=fixed;fillColor=#e1d5e7;strokeColor=#9673a6;opacity=40;" parent="1" vertex="1">
          <mxGeometry x="650" y="462.5" width="137" height="137" as="geometry" />
        </mxCell>
        <mxCell id="mJmgIE37o_1EEMdudaHA-78" value="" style="edgeStyle=orthogonalEdgeStyle;rounded=0;orthogonalLoop=1;jettySize=auto;html=1;" parent="1" source="mJmgIE37o_1EEMdudaHA-39" target="mJmgIE37o_1EEMdudaHA-72" edge="1">
          <mxGeometry relative="1" as="geometry" />
        </mxCell>
        <mxCell id="mJmgIE37o_1EEMdudaHA-39" value="" style="verticalLabelPosition=bottom;shadow=0;dashed=0;align=center;html=1;verticalAlign=top;shape=mxgraph.electrical.abstract.sum;" parent="1" vertex="1">
          <mxGeometry x="149" y="485.25" width="40" height="42.5" as="geometry" />
        </mxCell>
        <mxCell id="mJmgIE37o_1EEMdudaHA-40" value="-" style="text;html=1;align=center;verticalAlign=middle;resizable=0;points=[];autosize=1;strokeColor=none;fillColor=none;" parent="1" vertex="1">
          <mxGeometry x="170" y="516.37" width="30" height="30" as="geometry" />
        </mxCell>
        <mxCell id="mJmgIE37o_1EEMdudaHA-41" value="+" style="text;html=1;align=center;verticalAlign=middle;resizable=0;points=[];autosize=1;strokeColor=none;fillColor=none;" parent="1" vertex="1">
          <mxGeometry x="119" y="481" width="30" height="30" as="geometry" />
        </mxCell>
        <mxCell id="mJmgIE37o_1EEMdudaHA-44" value="" style="verticalLabelPosition=bottom;shadow=0;dashed=0;align=center;html=1;verticalAlign=top;shape=mxgraph.electrical.abstract.sum;" parent="1" vertex="1">
          <mxGeometry x="210" y="532.5" width="40" height="42.5" as="geometry" />
        </mxCell>
        <mxCell id="mJmgIE37o_1EEMdudaHA-45" value="-" style="text;html=1;align=center;verticalAlign=middle;resizable=0;points=[];autosize=1;strokeColor=none;fillColor=none;" parent="1" vertex="1">
          <mxGeometry x="230" y="562.25" width="30" height="30" as="geometry" />
        </mxCell>
        <mxCell id="mJmgIE37o_1EEMdudaHA-46" value="+" style="text;html=1;align=center;verticalAlign=middle;resizable=0;points=[];autosize=1;strokeColor=none;fillColor=none;" parent="1" vertex="1">
          <mxGeometry x="189" y="532.25" width="30" height="30" as="geometry" />
        </mxCell>
        <mxCell id="mJmgIE37o_1EEMdudaHA-53" value="" style="endArrow=none;html=1;rounded=0;entryX=0.013;entryY=0.364;entryDx=0;entryDy=0;entryPerimeter=0;exitX=1.001;exitY=0.394;exitDx=0;exitDy=0;exitPerimeter=0;" parent="1" source="mJmgIE37o_1EEMdudaHA-38" target="mJmgIE37o_1EEMdudaHA-2" edge="1">
          <mxGeometry width="50" height="50" relative="1" as="geometry">
            <mxPoint x="770.145" y="517.51" as="sourcePoint" />
            <mxPoint x="954.5" y="517.5" as="targetPoint" />
          </mxGeometry>
        </mxCell>
        <mxCell id="mJmgIE37o_1EEMdudaHA-54" value="" style="endArrow=none;html=1;rounded=0;exitX=1;exitY=0.527;exitDx=0;exitDy=0;exitPerimeter=0;entryX=0;entryY=0.506;entryDx=0;entryDy=0;entryPerimeter=0;" parent="1" edge="1">
          <mxGeometry width="50" height="50" relative="1" as="geometry">
            <mxPoint x="787" y="534.28" as="sourcePoint" />
            <mxPoint x="950" y="533.75" as="targetPoint" />
          </mxGeometry>
        </mxCell>
        <mxCell id="mJmgIE37o_1EEMdudaHA-55" value="" style="endArrow=none;html=1;rounded=0;entryX=0.013;entryY=0.364;entryDx=0;entryDy=0;entryPerimeter=0;exitX=1.005;exitY=0.627;exitDx=0;exitDy=0;exitPerimeter=0;" parent="1" source="mJmgIE37o_1EEMdudaHA-38" edge="1">
          <mxGeometry width="50" height="50" relative="1" as="geometry">
            <mxPoint x="770.005" y="550" as="sourcePoint" />
            <mxPoint x="951.86" y="550.49" as="targetPoint" />
          </mxGeometry>
        </mxCell>
        <mxCell id="mJmgIE37o_1EEMdudaHA-56" value="&lt;div&gt;Current&lt;/div&gt;&lt;div&gt;Sensor&lt;/div&gt;" style="rounded=1;whiteSpace=wrap;html=1;fillColor=#e1d5e7;strokeColor=#9673a6;" parent="1" vertex="1">
          <mxGeometry x="830" y="505" width="100" height="60" as="geometry" />
        </mxCell>
        <mxCell id="mJmgIE37o_1EEMdudaHA-66" value="" style="edgeStyle=orthogonalEdgeStyle;rounded=0;orthogonalLoop=1;jettySize=auto;html=1;" parent="1" edge="1">
          <mxGeometry relative="1" as="geometry">
            <mxPoint x="829.0000000000002" y="649.5" as="sourcePoint" />
            <mxPoint x="702" y="649.5" as="targetPoint" />
          </mxGeometry>
        </mxCell>
        <mxCell id="mJmgIE37o_1EEMdudaHA-111" value="IÎ±" style="edgeLabel;html=1;align=center;verticalAlign=middle;resizable=0;points=[];" parent="mJmgIE37o_1EEMdudaHA-66" vertex="1" connectable="0">
          <mxGeometry x="0.5066" y="1" relative="1" as="geometry">
            <mxPoint x="20" y="-10" as="offset" />
          </mxGeometry>
        </mxCell>
        <mxCell id="mJmgIE37o_1EEMdudaHA-60" value="&lt;div&gt;(a,b,c) -&amp;gt; (Î±, Î²)&lt;/div&gt;&lt;div&gt;&lt;br&gt;&lt;/div&gt;&lt;div&gt;ClarkeTransform&lt;br&gt;&lt;/div&gt;" style="rounded=1;whiteSpace=wrap;html=1;" parent="1" vertex="1">
          <mxGeometry x="830" y="630" width="100" height="63" as="geometry" />
        </mxCell>
        <mxCell id="mJmgIE37o_1EEMdudaHA-62" value="&lt;div&gt;(Î±, Î²)-&amp;gt; (d,q)&lt;br&gt;&lt;/div&gt;&lt;div&gt;&lt;br&gt;&lt;/div&gt;&lt;div&gt;Park Transform&lt;br&gt;&lt;/div&gt;" style="rounded=1;whiteSpace=wrap;html=1;" parent="1" vertex="1">
          <mxGeometry x="591" y="630" width="111" height="63" as="geometry" />
        </mxCell>
        <mxCell id="mJmgIE37o_1EEMdudaHA-65" value="Position Sensor" style="rounded=1;whiteSpace=wrap;html=1;fillColor=#e1d5e7;strokeColor=#9673a6;" parent="1" vertex="1">
          <mxGeometry x="952.5" y="633" width="120" height="60" as="geometry" />
        </mxCell>
        <mxCell id="mJmgIE37o_1EEMdudaHA-70" value="" style="endArrow=classic;html=1;rounded=0;exitX=0.479;exitY=0.998;exitDx=0;exitDy=0;exitPerimeter=0;" parent="1" edge="1">
          <mxGeometry width="50" height="50" relative="1" as="geometry">
            <mxPoint x="1006.9800000000002" y="692.82" as="sourcePoint" />
            <mxPoint x="647" y="693" as="targetPoint" />
            <Array as="points">
              <mxPoint x="1007" y="729.82" />
              <mxPoint x="647" y="729" />
            </Array>
          </mxGeometry>
        </mxCell>
        <mxCell id="mJmgIE37o_1EEMdudaHA-71" value="Rotor Angle Ï" style="edgeLabel;html=1;align=center;verticalAlign=middle;resizable=0;points=[];" parent="mJmgIE37o_1EEMdudaHA-70" vertex="1" connectable="0">
          <mxGeometry x="-0.0693" y="1" relative="1" as="geometry">
            <mxPoint x="-8" y="-11" as="offset" />
          </mxGeometry>
        </mxCell>
        <mxCell id="mJmgIE37o_1EEMdudaHA-72" value="PI" style="rounded=1;whiteSpace=wrap;html=1;" parent="1" vertex="1">
          <mxGeometry x="270" y="486.5" width="30" height="40" as="geometry" />
        </mxCell>
        <mxCell id="mJmgIE37o_1EEMdudaHA-73" value="&lt;div&gt;PWM&lt;/div&gt;&lt;div&gt;Generator&lt;br&gt;&lt;/div&gt;" style="rounded=1;whiteSpace=wrap;html=1;" parent="1" vertex="1">
          <mxGeometry x="565" y="501.5" width="60" height="60.75" as="geometry" />
        </mxCell>
        <mxCell id="mJmgIE37o_1EEMdudaHA-75" value="&lt;div&gt;(d,q) -&amp;gt; (Î±, Î²)&lt;/div&gt;&lt;div&gt;&lt;br&gt;&lt;/div&gt;&lt;div&gt;Inverse Park&lt;/div&gt;&lt;div&gt;&amp;nbsp;Transform&lt;br&gt;&lt;/div&gt;" style="rounded=1;whiteSpace=wrap;html=1;" parent="1" vertex="1">
          <mxGeometry x="410" y="480" width="89.5" height="97.5" as="geometry" />
        </mxCell>
        <mxCell id="mJmgIE37o_1EEMdudaHA-82" value="" style="endArrow=classic;html=1;rounded=0;exitX=1;exitY=0.5;exitDx=0;exitDy=0;exitPerimeter=0;" parent="1" source="mJmgIE37o_1EEMdudaHA-1" edge="1">
          <mxGeometry width="50" height="50" relative="1" as="geometry">
            <mxPoint x="126" y="555.25" as="sourcePoint" />
            <mxPoint x="150" y="507" as="targetPoint" />
          </mxGeometry>
        </mxCell>
        <mxCell id="mJmgIE37o_1EEMdudaHA-86" value="PI" style="rounded=1;whiteSpace=wrap;html=1;" parent="1" vertex="1">
          <mxGeometry x="270" y="534" width="30" height="40" as="geometry" />
        </mxCell>
        <mxCell id="mJmgIE37o_1EEMdudaHA-87" value="" style="endArrow=classic;html=1;rounded=0;entryX=0.85;entryY=0.938;entryDx=0;entryDy=0;entryPerimeter=0;" parent="1" edge="1">
          <mxGeometry width="50" height="50" relative="1" as="geometry">
            <mxPoint x="130" y="557" as="sourcePoint" />
            <mxPoint x="210" y="556.75" as="targetPoint" />
            <Array as="points">
              <mxPoint x="180" y="557" />
            </Array>
          </mxGeometry>
        </mxCell>
        <mxCell id="mJmgIE37o_1EEMdudaHA-88" value="Id_ref (= 0)" style="edgeLabel;html=1;align=center;verticalAlign=middle;resizable=0;points=[];" parent="mJmgIE37o_1EEMdudaHA-87" vertex="1" connectable="0">
          <mxGeometry x="0.0633" relative="1" as="geometry">
            <mxPoint x="-54" y="-10" as="offset" />
          </mxGeometry>
        </mxCell>
        <mxCell id="mJmgIE37o_1EEMdudaHA-89" value="" style="endArrow=classic;html=1;rounded=0;entryX=0.001;entryY=0.495;entryDx=0;entryDy=0;entryPerimeter=0;exitX=1.008;exitY=0.498;exitDx=0;exitDy=0;exitPerimeter=0;" parent="1" source="mJmgIE37o_1EEMdudaHA-44" target="mJmgIE37o_1EEMdudaHA-86" edge="1">
          <mxGeometry width="50" height="50" relative="1" as="geometry">
            <mxPoint x="250.76" y="553.38" as="sourcePoint" />
            <mxPoint x="269.995" y="554.12" as="targetPoint" />
          </mxGeometry>
        </mxCell>
        <mxCell id="mJmgIE37o_1EEMdudaHA-90" value="Iq_s" style="endArrow=classic;html=1;rounded=0;entryX=-0.071;entryY=0.419;entryDx=0;entryDy=0;entryPerimeter=0;exitX=0.001;exitY=0.668;exitDx=0;exitDy=0;exitPerimeter=0;" parent="1" edge="1" source="mJmgIE37o_1EEMdudaHA-62">
          <mxGeometry x="-0.7183" y="-11" width="50" height="50" relative="1" as="geometry">
            <mxPoint x="589.3349999999998" y="671.328" as="sourcePoint" />
            <mxPoint x="167.87" y="528.9399999999999" as="targetPoint" />
            <Array as="points">
              <mxPoint x="168" y="671" />
            </Array>
            <mxPoint as="offset" />
          </mxGeometry>
        </mxCell>
        <mxCell id="mJmgIE37o_1EEMdudaHA-94" value="" style="endArrow=classic;html=1;rounded=0;entryX=0.85;entryY=0.938;entryDx=0;entryDy=0;entryPerimeter=0;" parent="1" edge="1">
          <mxGeometry width="50" height="50" relative="1" as="geometry">
            <mxPoint x="10" y="506.49" as="sourcePoint" />
            <mxPoint x="60" y="506.37" as="targetPoint" />
            <Array as="points">
              <mxPoint x="30" y="506.62" />
            </Array>
          </mxGeometry>
        </mxCell>
        <mxCell id="mJmgIE37o_1EEMdudaHA-95" value="Iq_ref" style="edgeLabel;html=1;align=center;verticalAlign=middle;resizable=0;points=[];" parent="mJmgIE37o_1EEMdudaHA-94" vertex="1" connectable="0">
          <mxGeometry x="0.0633" relative="1" as="geometry">
            <mxPoint x="-19" y="-13" as="offset" />
          </mxGeometry>
        </mxCell>
        <mxCell id="mJmgIE37o_1EEMdudaHA-96" value="" style="endArrow=classic;html=1;rounded=0;entryX=0;entryY=0.25;entryDx=0;entryDy=0;exitX=1.003;exitY=0.174;exitDx=0;exitDy=0;exitPerimeter=0;" parent="1" edge="1" target="mJmgIE37o_1EEMdudaHA-75" source="VTOaXPj6sQZwgBR6kWpB-11">
          <mxGeometry width="50" height="50" relative="1" as="geometry">
            <mxPoint x="360" y="506" as="sourcePoint" />
            <mxPoint x="409.28950000000003" y="506.36175" as="targetPoint" />
          </mxGeometry>
        </mxCell>
        <mxCell id="mJmgIE37o_1EEMdudaHA-97" value="Uq_r" style="edgeLabel;html=1;align=center;verticalAlign=middle;resizable=0;points=[];" parent="mJmgIE37o_1EEMdudaHA-96" vertex="1" connectable="0">
          <mxGeometry x="-0.2199" relative="1" as="geometry">
            <mxPoint x="2" y="-9" as="offset" />
          </mxGeometry>
        </mxCell>
        <mxCell id="mJmgIE37o_1EEMdudaHA-98" value="" style="endArrow=classic;html=1;rounded=0;exitX=0.997;exitY=0.486;exitDx=0;exitDy=0;exitPerimeter=0;entryX=0;entryY=0.759;entryDx=0;entryDy=0;entryPerimeter=0;" parent="1" edge="1" target="mJmgIE37o_1EEMdudaHA-75">
          <mxGeometry width="50" height="50" relative="1" as="geometry">
            <mxPoint x="355.70900000000006" y="553.98" as="sourcePoint" />
            <mxPoint x="408.9995" y="553.8617499999999" as="targetPoint" />
          </mxGeometry>
        </mxCell>
        <mxCell id="mJmgIE37o_1EEMdudaHA-99" value="Ud_r" style="edgeLabel;html=1;align=center;verticalAlign=middle;resizable=0;points=[];" parent="mJmgIE37o_1EEMdudaHA-98" vertex="1" connectable="0">
          <mxGeometry x="-0.2199" relative="1" as="geometry">
            <mxPoint x="2" y="-9" as="offset" />
          </mxGeometry>
        </mxCell>
        <mxCell id="mJmgIE37o_1EEMdudaHA-100" value="" style="endArrow=classic;html=1;rounded=0;exitX=0.997;exitY=0.486;exitDx=0;exitDy=0;exitPerimeter=0;entryX=-0.009;entryY=0.221;entryDx=0;entryDy=0;entryPerimeter=0;" parent="1" target="mJmgIE37o_1EEMdudaHA-73" edge="1">
          <mxGeometry width="50" height="50" relative="1" as="geometry">
            <mxPoint x="499.4990000000001" y="515.0200000000001" as="sourcePoint" />
            <mxPoint x="552.7895" y="514.90175" as="targetPoint" />
          </mxGeometry>
        </mxCell>
        <mxCell id="mJmgIE37o_1EEMdudaHA-101" value="UÎ±_ref" style="edgeLabel;html=1;align=center;verticalAlign=middle;resizable=0;points=[];" parent="mJmgIE37o_1EEMdudaHA-100" vertex="1" connectable="0">
          <mxGeometry x="-0.2199" relative="1" as="geometry">
            <mxPoint x="2" y="-9" as="offset" />
          </mxGeometry>
        </mxCell>
        <mxCell id="mJmgIE37o_1EEMdudaHA-102" value="" style="endArrow=classic;html=1;rounded=0;exitX=0.997;exitY=0.486;exitDx=0;exitDy=0;exitPerimeter=0;entryX=0;entryY=0.75;entryDx=0;entryDy=0;" parent="1" edge="1" target="mJmgIE37o_1EEMdudaHA-73">
          <mxGeometry width="50" height="50" relative="1" as="geometry">
            <mxPoint x="499.4990000000001" y="546.3900000000001" as="sourcePoint" />
            <mxPoint x="549" y="546.37" as="targetPoint" />
          </mxGeometry>
        </mxCell>
        <mxCell id="mJmgIE37o_1EEMdudaHA-103" value="UÎ²_ref" style="edgeLabel;html=1;align=center;verticalAlign=middle;resizable=0;points=[];" parent="mJmgIE37o_1EEMdudaHA-102" vertex="1" connectable="0">
          <mxGeometry x="-0.2199" relative="1" as="geometry">
            <mxPoint x="2" y="-9" as="offset" />
          </mxGeometry>
        </mxCell>
        <mxCell id="mJmgIE37o_1EEMdudaHA-105" value="" style="edgeStyle=orthogonalEdgeStyle;rounded=0;orthogonalLoop=1;jettySize=auto;html=1;exitX=1;exitY=0.25;exitDx=0;exitDy=0;entryX=-0.008;entryY=0.395;entryDx=0;entryDy=0;entryPerimeter=0;" parent="1" edge="1">
          <mxGeometry relative="1" as="geometry">
            <mxPoint x="625" y="514.6875" as="sourcePoint" />
            <mxPoint x="648.904" y="514.615" as="targetPoint" />
          </mxGeometry>
        </mxCell>
        <mxCell id="mJmgIE37o_1EEMdudaHA-108" value="" style="endArrow=classic;html=1;rounded=0;entryX=-0.013;entryY=0.503;entryDx=0;entryDy=0;entryPerimeter=0;" parent="1" target="mJmgIE37o_1EEMdudaHA-45" edge="1">
          <mxGeometry width="50" height="50" relative="1" as="geometry">
            <mxPoint x="590" y="650" as="sourcePoint" />
            <mxPoint x="230.42000000000007" y="582.94" as="targetPoint" />
            <Array as="points">
              <mxPoint x="240.55" y="650.02" />
              <mxPoint x="230" y="650" />
            </Array>
          </mxGeometry>
        </mxCell>
        <mxCell id="mJmgIE37o_1EEMdudaHA-109" value="Id_s" style="edgeLabel;html=1;align=center;verticalAlign=middle;resizable=0;points=[];" parent="mJmgIE37o_1EEMdudaHA-108" vertex="1" connectable="0">
          <mxGeometry x="0.329" y="-1" relative="1" as="geometry">
            <mxPoint x="207" y="-8" as="offset" />
          </mxGeometry>
        </mxCell>
        <mxCell id="mJmgIE37o_1EEMdudaHA-110" value="" style="edgeStyle=orthogonalEdgeStyle;rounded=0;orthogonalLoop=1;jettySize=auto;html=1;" parent="1" edge="1">
          <mxGeometry relative="1" as="geometry">
            <mxPoint x="829.0000000000002" y="670" as="sourcePoint" />
            <mxPoint x="702" y="670" as="targetPoint" />
          </mxGeometry>
        </mxCell>
        <mxCell id="mJmgIE37o_1EEMdudaHA-112" value="IÎ²" style="edgeLabel;html=1;align=center;verticalAlign=middle;resizable=0;points=[];" parent="mJmgIE37o_1EEMdudaHA-110" vertex="1" connectable="0">
          <mxGeometry x="-0.556" relative="1" as="geometry">
            <mxPoint x="-48" y="-8" as="offset" />
          </mxGeometry>
        </mxCell>
        <mxCell id="mJmgIE37o_1EEMdudaHA-114" value="" style="endArrow=classic;html=1;rounded=0;" parent="1" edge="1">
          <mxGeometry width="50" height="50" relative="1" as="geometry">
            <mxPoint x="457" y="730" as="sourcePoint" />
            <mxPoint x="457.1069230769231" y="577.5" as="targetPoint" />
          </mxGeometry>
        </mxCell>
        <mxCell id="mJmgIE37o_1EEMdudaHA-115" value="" style="whiteSpace=wrap;html=1;aspect=fixed;fillColor=#e1d5e7;strokeColor=#9673a6;opacity=40;" parent="1" vertex="1">
          <mxGeometry x="647" y="261" width="140" height="140" as="geometry" />
        </mxCell>
        <mxCell id="1cb643a89b7d889d-7" value="Udc" style="verticalLabelPosition=bottom;shadow=0;dashed=0;align=center;fillColor=default;html=1;verticalAlign=top;strokeWidth=1;shape=mxgraph.electrical.miscellaneous.monocell_battery;rounded=1;comic=0;labelBackgroundColor=none;fontFamily=Verdana;fontSize=12;flipH=1;rotation=90;" parent="1" vertex="1">
          <mxGeometry x="687" y="293" width="40" height="51" as="geometry" />
        </mxCell>
        <mxCell id="mJmgIE37o_1EEMdudaHA-27" value="Power Supply" style="text;html=1;align=center;verticalAlign=middle;resizable=0;points=[];autosize=1;strokeColor=none;fillColor=none;" parent="1" vertex="1">
          <mxGeometry x="657" y="370" width="100" height="30" as="geometry" />
        </mxCell>
        <mxCell id="mJmgIE37o_1EEMdudaHA-23" value="" style="pointerEvents=1;verticalLabelPosition=bottom;shadow=0;dashed=0;align=center;html=1;verticalAlign=top;shape=mxgraph.electrical.capacitors.capacitor_1;rotation=-90;" parent="1" vertex="1">
          <mxGeometry x="743" y="303.95000000000005" width="30" height="29.09" as="geometry" />
        </mxCell>
        <mxCell id="mJmgIE37o_1EEMdudaHA-118" value="" style="endArrow=none;html=1;rounded=0;entryX=0.629;entryY=1.027;entryDx=0;entryDy=0;entryPerimeter=0;" parent="1" target="mJmgIE37o_1EEMdudaHA-27" edge="1">
          <mxGeometry width="50" height="50" relative="1" as="geometry">
            <mxPoint x="720" y="462" as="sourcePoint" />
            <mxPoint x="720" y="362" as="targetPoint" />
          </mxGeometry>
        </mxCell>
        <mxCell id="VTOaXPj6sQZwgBR6kWpB-10" value="" style="endArrow=classic;html=1;rounded=0;entryX=1;entryY=0.5;entryDx=0;entryDy=0;" edge="1" parent="1">
          <mxGeometry width="50" height="50" relative="1" as="geometry">
            <mxPoint x="650" y="729" as="sourcePoint" />
            <mxPoint x="438" y="730.5" as="targetPoint" />
          </mxGeometry>
        </mxCell>
        <mxCell id="VTOaXPj6sQZwgBR6kWpB-11" value="&lt;h3 style=&quot;font-size: 5px;&quot;&gt;&lt;font style=&quot;font-size: 5px;&quot;&gt;Decoupling&lt;/font&gt;&lt;/h3&gt;&lt;h3 style=&quot;font-size: 5px;&quot;&gt;&lt;font style=&quot;font-size: 5px;&quot;&gt;&amp;amp;&lt;/font&gt;&lt;/h3&gt;&lt;div style=&quot;font-size: 5px;&quot;&gt;&lt;h3&gt;&lt;font style=&quot;font-size: 5px;&quot;&gt;Back EMF&lt;/font&gt;&lt;/h3&gt;&lt;/div&gt;&lt;div style=&quot;font-size: 5px;&quot;&gt;&lt;h3&gt;&lt;font style=&quot;font-size: 5px;&quot;&gt;Compensation&lt;font style=&quot;font-size: 5px;&quot;&gt;&lt;br&gt;&lt;/font&gt;&lt;/font&gt;&lt;/h3&gt;&lt;/div&gt;" style="rounded=1;whiteSpace=wrap;html=1;" vertex="1" parent="1">
          <mxGeometry x="317" y="490" width="42" height="80" as="geometry" />
        </mxCell>
        <mxCell id="VTOaXPj6sQZwgBR6kWpB-12" value="" style="endArrow=classic;html=1;rounded=0;entryX=-0.003;entryY=0.198;entryDx=0;entryDy=0;entryPerimeter=0;exitX=1.012;exitY=0.484;exitDx=0;exitDy=0;exitPerimeter=0;" edge="1" parent="1" source="mJmgIE37o_1EEMdudaHA-72" target="VTOaXPj6sQZwgBR6kWpB-11">
          <mxGeometry width="50" height="50" relative="1" as="geometry">
            <mxPoint x="330" y="550" as="sourcePoint" />
            <mxPoint x="380" y="500" as="targetPoint" />
          </mxGeometry>
        </mxCell>
        <mxCell id="VTOaXPj6sQZwgBR6kWpB-13" value="" style="endArrow=classic;html=1;rounded=0;entryX=-0.003;entryY=0.198;entryDx=0;entryDy=0;entryPerimeter=0;exitX=1.012;exitY=0.484;exitDx=0;exitDy=0;exitPerimeter=0;" edge="1" parent="1">
          <mxGeometry width="50" height="50" relative="1" as="geometry">
            <mxPoint x="300" y="553.71" as="sourcePoint" />
            <mxPoint x="317" y="553.71" as="targetPoint" />
          </mxGeometry>
        </mxCell>
        <mxCell id="VTOaXPj6sQZwgBR6kWpB-14" value="" style="endArrow=classic;html=1;rounded=0;entryX=0.5;entryY=1;entryDx=0;entryDy=0;exitX=0.005;exitY=0.518;exitDx=0;exitDy=0;exitPerimeter=0;" edge="1" parent="1">
          <mxGeometry width="50" height="50" relative="1" as="geometry">
            <mxPoint x="396.15" y="600.0939999999999" as="sourcePoint" />
            <mxPoint x="351" y="570" as="targetPoint" />
            <Array as="points">
              <mxPoint x="363" y="600" />
              <mxPoint x="393" y="600" />
              <mxPoint x="351" y="600" />
            </Array>
          </mxGeometry>
        </mxCell>
        <mxCell id="VTOaXPj6sQZwgBR6kWpB-15" value="&lt;font style=&quot;font-size: 7px;&quot;&gt;El. Velocity&lt;/font&gt;" style="edgeLabel;html=1;align=center;verticalAlign=middle;resizable=0;points=[];" vertex="1" connectable="0" parent="VTOaXPj6sQZwgBR6kWpB-14">
          <mxGeometry x="0.2222" y="1" relative="1" as="geometry">
            <mxPoint x="-24" y="9" as="offset" />
          </mxGeometry>
        </mxCell>
        <mxCell id="VTOaXPj6sQZwgBR6kWpB-16" value="" style="verticalLabelPosition=bottom;shadow=0;dashed=0;align=center;html=1;verticalAlign=top;shape=mxgraph.electrical.abstract.multiplier;" vertex="1" parent="1">
          <mxGeometry x="383" y="583" width="30" height="33" as="geometry" />
        </mxCell>
        <mxCell id="VTOaXPj6sQZwgBR6kWpB-18" value="" style="endArrow=classic;html=1;rounded=0;entryX=1;entryY=0.5;entryDx=0;entryDy=0;entryPerimeter=0;" edge="1" parent="1" target="VTOaXPj6sQZwgBR6kWpB-16">
          <mxGeometry width="50" height="50" relative="1" as="geometry">
            <mxPoint x="440" y="600" as="sourcePoint" />
            <mxPoint x="450" y="600" as="targetPoint" />
          </mxGeometry>
        </mxCell>
        <mxCell id="VTOaXPj6sQZwgBR6kWpB-19" value="P" style="edgeLabel;html=1;align=center;verticalAlign=middle;resizable=0;points=[];" vertex="1" connectable="0" parent="VTOaXPj6sQZwgBR6kWpB-18">
          <mxGeometry x="-0.3464" y="1" relative="1" as="geometry">
            <mxPoint x="9" y="-9" as="offset" />
          </mxGeometry>
        </mxCell>
        <mxCell id="VTOaXPj6sQZwgBR6kWpB-20" value="" style="endArrow=classic;html=1;rounded=0;entryX=0.5;entryY=1;entryDx=0;entryDy=0;entryPerimeter=0;" edge="1" parent="1" target="VTOaXPj6sQZwgBR6kWpB-16">
          <mxGeometry width="50" height="50" relative="1" as="geometry">
            <mxPoint x="398" y="690" as="sourcePoint" />
            <mxPoint x="398" y="620" as="targetPoint" />
          </mxGeometry>
        </mxCell>
        <mxCell id="VTOaXPj6sQZwgBR6kWpB-23" value="&lt;div style=&quot;font-size: 10px;&quot;&gt;&lt;font style=&quot;font-size: 6px;&quot;&gt;Mech. Velocity&lt;/font&gt;&lt;/div&gt;" style="edgeLabel;html=1;align=center;verticalAlign=middle;resizable=0;points=[];" vertex="1" connectable="0" parent="VTOaXPj6sQZwgBR6kWpB-20">
          <mxGeometry x="-0.749" y="1" relative="1" as="geometry">
            <mxPoint x="23" y="-51" as="offset" />
          </mxGeometry>
        </mxCell>
        <mxCell id="VTOaXPj6sQZwgBR6kWpB-21" value="" style="endArrow=classic;html=1;rounded=0;" edge="1" parent="1">
          <mxGeometry width="50" height="50" relative="1" as="geometry">
            <mxPoint x="330" y="600" as="sourcePoint" />
            <mxPoint x="330" y="570" as="targetPoint" />
          </mxGeometry>
        </mxCell>
        <mxCell id="VTOaXPj6sQZwgBR6kWpB-22" value="Lq, Ld" style="edgeLabel;html=1;align=center;verticalAlign=middle;resizable=0;points=[];" vertex="1" connectable="0" parent="VTOaXPj6sQZwgBR6kWpB-21">
          <mxGeometry x="-0.3922" relative="1" as="geometry">
            <mxPoint x="-20" y="-1" as="offset" />
          </mxGeometry>
        </mxCell>
        <mxCell id="VTOaXPj6sQZwgBR6kWpB-24" value="&lt;div style=&quot;font-size: 7px;&quot;&gt;&lt;font style=&quot;font-size: 7px;&quot;&gt;Velocity&lt;/font&gt;&lt;/div&gt;&lt;div style=&quot;font-size: 7px;&quot;&gt;&lt;font style=&quot;font-size: 7px;&quot;&gt;Computation&lt;font style=&quot;font-size: 7px;&quot;&gt;&lt;br&gt;&lt;/font&gt;&lt;/font&gt;&lt;/div&gt;" style="rounded=1;whiteSpace=wrap;html=1;" vertex="1" parent="1">
          <mxGeometry x="358" y="720" width="80" height="23" as="geometry" />
        </mxCell>
        <mxCell id="VTOaXPj6sQZwgBR6kWpB-26" value="" style="verticalLabelPosition=bottom;shadow=0;dashed=0;align=center;html=1;verticalAlign=top;shape=mxgraph.electrical.logic_gates.lowpass_filter;" vertex="1" parent="1">
          <mxGeometry x="382" y="678" width="30" height="22" as="geometry" />
        </mxCell>
        <mxCell id="VTOaXPj6sQZwgBR6kWpB-30" value="" style="endArrow=classic;html=1;rounded=0;entryX=0.528;entryY=1.008;entryDx=0;entryDy=0;entryPerimeter=0;exitX=0.5;exitY=0;exitDx=0;exitDy=0;" edge="1" parent="1" source="VTOaXPj6sQZwgBR6kWpB-24" target="VTOaXPj6sQZwgBR6kWpB-26">
          <mxGeometry width="50" height="50" relative="1" as="geometry">
            <mxPoint x="370" y="720" as="sourcePoint" />
            <mxPoint x="420" y="670" as="targetPoint" />
          </mxGeometry>
        </mxCell>
        <mxCell id="VTOaXPj6sQZwgBR6kWpB-32" value="" style="rounded=0;whiteSpace=wrap;html=1;opacity=20;fillColor=#fff2cc;strokeColor=#d6b656;" vertex="1" parent="1">
          <mxGeometry x="40" y="381.5" width="510" height="428.5" as="geometry" />
        </mxCell>
        <mxCell id="VTOaXPj6sQZwgBR6kWpB-35" value="" style="endArrow=classic;html=1;rounded=0;exitX=0.25;exitY=1;exitDx=0;exitDy=0;entryX=0.25;entryY=0;entryDx=0;entryDy=0;" edge="1" parent="1" source="mJmgIE37o_1EEMdudaHA-56" target="mJmgIE37o_1EEMdudaHA-60">
          <mxGeometry width="50" height="50" relative="1" as="geometry">
            <mxPoint x="800" y="680" as="sourcePoint" />
            <mxPoint x="850" y="630" as="targetPoint" />
          </mxGeometry>
        </mxCell>
        <mxCell id="VTOaXPj6sQZwgBR6kWpB-36" value="i_a" style="edgeLabel;html=1;align=center;verticalAlign=middle;resizable=0;points=[];" vertex="1" connectable="0" parent="VTOaXPj6sQZwgBR6kWpB-35">
          <mxGeometry x="0.3709" relative="1" as="geometry">
            <mxPoint x="-15" y="-10" as="offset" />
          </mxGeometry>
        </mxCell>
        <mxCell id="VTOaXPj6sQZwgBR6kWpB-37" value="" style="endArrow=classic;html=1;rounded=0;exitX=0.25;exitY=1;exitDx=0;exitDy=0;entryX=0.25;entryY=0;entryDx=0;entryDy=0;" edge="1" parent="1">
          <mxGeometry width="50" height="50" relative="1" as="geometry">
            <mxPoint x="880" y="565" as="sourcePoint" />
            <mxPoint x="880" y="630" as="targetPoint" />
          </mxGeometry>
        </mxCell>
        <mxCell id="VTOaXPj6sQZwgBR6kWpB-38" value="i_b" style="edgeLabel;html=1;align=center;verticalAlign=middle;resizable=0;points=[];" vertex="1" connectable="0" parent="VTOaXPj6sQZwgBR6kWpB-37">
          <mxGeometry x="0.3709" relative="1" as="geometry">
            <mxPoint x="-15" y="-10" as="offset" />
          </mxGeometry>
        </mxCell>
        <mxCell id="VTOaXPj6sQZwgBR6kWpB-39" value="" style="endArrow=classic;html=1;rounded=0;exitX=0.25;exitY=1;exitDx=0;exitDy=0;entryX=0.25;entryY=0;entryDx=0;entryDy=0;" edge="1" parent="1">
          <mxGeometry width="50" height="50" relative="1" as="geometry">
            <mxPoint x="904" y="565" as="sourcePoint" />
            <mxPoint x="904" y="630" as="targetPoint" />
          </mxGeometry>
        </mxCell>
        <mxCell id="VTOaXPj6sQZwgBR6kWpB-40" value="i_c" style="edgeLabel;html=1;align=center;verticalAlign=middle;resizable=0;points=[];" vertex="1" connectable="0" parent="VTOaXPj6sQZwgBR6kWpB-39">
          <mxGeometry x="0.3709" relative="1" as="geometry">
            <mxPoint x="-15" y="-10" as="offset" />
          </mxGeometry>
        </mxCell>
        <mxCell id="VTOaXPj6sQZwgBR6kWpB-42" value="" style="edgeStyle=orthogonalEdgeStyle;rounded=0;orthogonalLoop=1;jettySize=auto;html=1;exitX=1;exitY=0.25;exitDx=0;exitDy=0;entryX=-0.008;entryY=0.395;entryDx=0;entryDy=0;entryPerimeter=0;" edge="1" parent="1">
          <mxGeometry relative="1" as="geometry">
            <mxPoint x="625" y="530" as="sourcePoint" />
            <mxPoint x="649" y="530" as="targetPoint" />
          </mxGeometry>
        </mxCell>
        <mxCell id="VTOaXPj6sQZwgBR6kWpB-43" value="" style="edgeStyle=orthogonalEdgeStyle;rounded=0;orthogonalLoop=1;jettySize=auto;html=1;exitX=1;exitY=0.25;exitDx=0;exitDy=0;entryX=-0.008;entryY=0.395;entryDx=0;entryDy=0;entryPerimeter=0;" edge="1" parent="1">
          <mxGeometry relative="1" as="geometry">
            <mxPoint x="625" y="549.17" as="sourcePoint" />
            <mxPoint x="649" y="549.17" as="targetPoint" />
          </mxGeometry>
        </mxCell>
      </root>
    </mxGraphModel>
  </diagram>
</mxfile>
